<?xml version="1.0" standalone="no"?>
<!DOCTYPE svg PUBLIC "-//W3C//DTD SVG 20010904//EN"
 "http://www.w3.org/TR/2001/REC-SVG-20010904/DTD/svg10.dtd">
<svg version="1.0" xmlns="http://www.w3.org/2000/svg"
 width="1000.000000pt" height="1000.000000pt" viewBox="0 0 1000.000000 1000.000000"
 preserveAspectRatio="xMidYMid meet">
<metadata>
Created by potrace 1.11, written by Peter Selinger 2001-2013
</metadata>
<g transform="translate(0.000000,1000.000000) scale(0.100000,-0.100000)"
fill="#000000" stroke="none">
<path d="M2142 8049 c0 -877 -1 -1600 -1 -1606 -1 -10 -151 -13 -715 -13
l-714 0 0 -2859 0 -2860 4288 0 4288 0 0 2860 0 2859 -714 0 c-393 0 -714 3
-715 8 0 4 -1 727 -1 1606 l-1 1599 -36 -39 c-20 -22 -70 -77 -111 -123 -41
-47 -96 -107 -121 -135 -25 -28 -70 -78 -100 -111 -30 -34 -86 -97 -126 -141
-40 -44 -82 -91 -93 -105 -12 -13 -31 -35 -44 -49 -50 -56 -292 -327 -322
-360 -17 -19 -96 -107 -174 -195 -78 -88 -157 -176 -174 -195 -59 -65 -221
-246 -286 -319 -36 -40 -81 -90 -100 -111 -19 -21 -54 -60 -77 -86 -23 -27
-54 -63 -70 -80 -15 -16 -57 -63 -93 -103 -36 -41 -76 -86 -90 -101 -14 -15
-41 -45 -59 -66 -70 -79 -196 -219 -201 -224 -3 -3 -77 -86 -165 -185 -88 -99
-162 -182 -165 -185 -7 -7 -86 -95 -178 -197 l-73 -82 -37 42 c-20 23 -39 44
-42 47 -3 3 -23 25 -44 50 -22 25 -74 83 -116 130 -42 47 -94 105 -116 130
-21 24 -48 54 -59 65 -11 12 -47 52 -80 90 -33 37 -67 75 -76 84 -13 14 -205
229 -294 330 -16 19 -39 44 -50 55 -11 12 -51 57 -90 101 -38 43 -77 86 -85
95 -8 9 -46 51 -85 94 -38 44 -75 84 -80 90 -6 6 -64 72 -130 146 -66 74 -122
137 -125 140 -3 3 -41 46 -85 95 -44 50 -82 92 -85 95 -3 3 -39 43 -80 90 -41
47 -82 92 -90 100 -8 8 -49 53 -90 100 -41 47 -77 87 -80 90 -3 3 -80 88 -170
190 -91 102 -169 190 -175 196 -5 6 -24 26 -40 45 -17 19 -77 86 -134 149 -56
63 -135 151 -174 195 -40 44 -88 97 -108 119 l-36 39 -1 -1594z"/>
</g>
</svg>
